<svg width="570" height="666" viewBox="0 0 570 666" fill="none" xmlns="http://www.w3.org/2000/svg">
<path fill-rule="evenodd" clip-rule="evenodd" d="M435.071 442.056L374.598 649.053C367.952 671.8 335.395 670.801 330.156 647.69L307.338 547.031C303.711 531.03 284.961 523.884 271.604 533.411L146.125 622.91C128.377 635.568 104.63 618.694 110.745 597.77L154.256 448.89C158.859 433.142 145.94 417.787 129.637 419.627L25.6116 431.366C2.06576 434.023 -9.59124 403.61 9.69834 389.849L185.274 264.594C193.24 258.911 203.934 258.9 211.912 264.568L426.327 416.893C434.306 422.561 437.815 432.662 435.071 442.056Z" fill="#151515"/>
<path fill-rule="evenodd" clip-rule="evenodd" d="M322.933 131.053L494.026 9.03001C530.759 -17.1688 579.908 17.7576 567.25 61.0646L508.298 262.755C499.131 294.118 461.784 307.093 435.145 288.169L323.004 208.502C296.362 189.575 296.325 150.029 322.933 131.053Z" fill="#151515"/>
</svg>
