<svg width="1500" height="1500" viewBox="0 0 1500 1500" fill="none" xmlns="http://www.w3.org/2000/svg">
<rect width="1500" height="1500" rx="148" fill="white"/>
<path d="M772.25 1048.89H468.703C458.926 1048.89 451 1040.96 451 1031.18V727.637C451 610.789 545.723 516.066 662.571 516.066H728.204C731.632 516.066 733.348 520.211 730.924 522.634L730.856 522.702C730.358 523.2 729.869 523.699 729.35 524.228L729.026 524.562L640.056 613.532H621.72C610.418 613.527 599.794 617.929 591.802 625.921L511.327 706.396C502.428 715.295 497.577 727.534 498.001 739.983C498.4 751.559 503.101 762.452 511.247 770.668C511.332 770.753 535.755 795.176 535.755 795.176L517.05 823.912C511.117 833.035 507.982 843.619 507.982 854.527V934.77C507.982 949.912 513.742 964.596 524.431 975.321C535.092 986.018 549.289 991.906 564.387 991.906H645.36C656.268 991.906 666.852 988.77 675.975 982.838L705.13 963.863L729.269 988.69C737.475 996.806 748.348 1001.49 759.904 1001.89C772.353 1002.31 784.592 997.459 793.491 988.56L873.966 908.085C881.958 900.094 886.36 889.47 886.36 878.192L886.35 859.836L975.026 771.16L975.679 770.517C976.183 770.023 976.686 769.53 977.185 769.031L977.252 768.964C979.676 766.54 983.82 768.256 983.82 771.684V837.317C983.821 954.164 889.098 1048.89 772.25 1048.89Z" fill="black"/>
<path d="M645.557 826.522H564.582C549.007 826.522 536.38 839.148 536.38 854.724V935.699C536.38 951.274 549.006 963.901 564.582 963.901H645.557C661.132 963.901 673.759 951.275 673.759 935.699V854.724C673.759 839.149 661.133 826.522 645.557 826.522Z" fill="#EF3333"/>
<path d="M858.354 878.366V854.187C858.354 850.448 859.84 846.859 862.482 844.216L955.525 751.173C956.163 750.545 956.806 749.922 957.439 749.288C1033.56 673.166 1061.84 567.31 1042.28 469.097C1041.16 463.493 1036.79 459.116 1031.18 457.999C932.97 438.436 827.115 466.718 750.992 542.841C750.359 543.474 749.736 544.117 749.107 544.755L656.064 637.798C653.422 640.44 649.832 641.926 646.093 641.926H621.914C618.175 641.926 614.585 643.412 611.938 646.059L531.463 726.534C524.104 733.893 525.251 744.791 531.533 751.072C533.442 752.981 535.82 754.462 538.577 755.285C540.157 755.759 541.862 756.018 543.677 756.018H730.162C737.949 756.018 744.261 762.329 744.261 770.117V956.602C744.261 958.417 744.52 960.122 744.994 961.702C748.539 973.542 764.148 978.413 773.745 968.816L854.22 888.341C856.869 885.694 858.354 882.105 858.354 878.366ZM855.702 644.579C835.047 623.924 835.047 590.442 855.702 569.788C876.357 549.133 909.839 549.133 930.493 569.788C951.147 590.443 951.148 623.925 930.493 644.579C909.839 665.234 876.357 665.234 855.702 644.579Z" fill="#EF3333"/>
</svg>
