<svg width="650" height="792" viewBox="0 0 650 792" fill="none" xmlns="http://www.w3.org/2000/svg">
<path fill-rule="evenodd" clip-rule="evenodd" d="M435.071 568.056L374.598 775.053C367.952 797.8 335.395 796.801 330.156 773.69L307.338 673.031C303.711 657.03 284.961 649.884 271.604 659.411L146.125 748.91C128.377 761.568 104.63 744.694 110.745 723.77L154.256 574.89C158.859 559.142 145.94 543.787 129.637 545.627L25.6116 557.366C2.06576 560.023 -9.59124 529.61 9.69834 515.849L185.274 390.594C193.24 384.911 203.934 384.9 211.912 390.568L426.327 542.893C434.306 548.561 437.815 558.662 435.071 568.056Z" fill="#EF3333"/>
<path fill-rule="evenodd" clip-rule="evenodd" d="M302.195 332.786C328.115 244.085 455.081 247.993 475.497 338.121V338.121C493.653 418.274 403.287 478.509 336.289 430.912C305.177 408.809 291.49 369.418 302.195 332.786Z" fill="#EF3333"/>
<path fill-rule="evenodd" clip-rule="evenodd" d="M403.434 131.053L574.526 9.03001C611.26 -17.1688 660.409 17.7576 647.751 61.0646L588.799 262.755C579.632 294.118 542.284 307.093 515.646 288.169L403.505 208.502C376.863 189.575 376.826 150.029 403.434 131.053Z" fill="#EF3333"/>
</svg>
