<svg width="2757" height="655" viewBox="0 0 2757 655" fill="none" xmlns="http://www.w3.org/2000/svg">
<path d="M208 312C221.6 312 233.067 316.8 242.4 326.4C252 335.733 256.8 347.067 256.8 360.4V444.4H53.2V495.6C53.2 499.867 54.6667 503.6 57.6 506.8C60.8 509.733 64.5333 511.2 68.8 511.2H256.8V544H68.8C55.4667 544 44 539.333 34.4 530C25.0667 520.4 20.4 508.933 20.4 495.6V360.4C20.4 347.067 25.0667 335.733 34.4 326.4C44 316.8 55.4667 312 68.8 312H208ZM53.2 411.6H223.6V360.4C223.6 356.133 222 352.533 218.8 349.6C215.867 346.4 212.267 344.8 208 344.8H68.8C64.5333 344.8 60.8 346.4 57.6 349.6C54.6667 352.533 53.2 356.133 53.2 360.4V411.6ZM466.553 312C479.886 312 491.22 316.8 500.553 326.4C510.153 335.733 514.953 347.067 514.953 360.4V544H482.153V360.4C482.153 356.133 480.553 352.533 477.353 349.6C474.42 346.4 470.82 344.8 466.553 344.8H327.353C323.086 344.8 319.353 346.4 316.153 349.6C312.953 352.533 311.353 356.133 311.353 360.4V544H278.553V312H466.553ZM779.869 312H818.269L689.869 544H651.869L523.869 312H562.269L671.069 512L779.869 312ZM1066.28 124C1155.08 124 1227.08 195.6 1227.08 284.4C1227.08 373.2 1155.08 445.2 1066.28 445.2H917.884V544H831.484V445.2V124H917.884H1066.28ZM1066.28 358.8C1107.08 358.8 1140.28 325.6 1140.28 284.4C1140.28 243.6 1107.08 210.4 1066.28 210.4H917.884V358.8H1066.28ZM1642.63 284.4C1642.63 386.4 1520.23 360 1520.23 360L1637.03 544H1535.43L1475.03 445.2H1333.43V544H1247.03V124H1481.83C1526.23 124 1566.23 142 1595.43 170.8C1624.63 200 1642.63 240 1642.63 284.4ZM1517.83 349.2C1540.63 336.8 1555.83 312.4 1555.83 284.4C1555.83 243.6 1522.63 210.4 1481.83 210.4H1333.43V358.8H1481.83C1495.03 358.8 1507.03 355.2 1517.83 349.2ZM1864.58 124C1980.58 124 2074.58 218 2074.58 334C2074.58 450 1980.58 544 1864.58 544C1748.58 544 1654.58 450 1654.58 334C1654.58 218 1748.58 124 1864.58 124ZM1864.58 457.6C1932.98 457.6 1988.18 402 1988.18 334C1988.18 265.6 1932.98 210.4 1864.58 210.4C1796.58 210.4 1740.98 265.6 1740.98 334C1740.98 402 1796.58 457.6 1864.58 457.6Z" fill="#1A1A1A"/>
<path d="M2480.25 625.887H2176.7C2166.93 625.887 2159 617.961 2159 608.184V304.637C2159 187.789 2253.72 93.0664 2370.57 93.0664H2436.2C2439.63 93.0664 2441.35 97.2114 2438.92 99.6344L2438.86 99.7024C2438.36 100.2 2437.87 100.699 2437.35 101.228L2437.03 101.562L2348.06 190.532H2329.72C2318.42 190.527 2307.79 194.929 2299.8 202.921L2219.33 283.396C2210.43 292.295 2205.58 304.534 2206 316.983C2206.4 328.559 2211.1 339.452 2219.25 347.668C2219.33 347.753 2243.76 372.176 2243.76 372.176L2225.05 400.912C2219.12 410.035 2215.98 420.619 2215.98 431.527V511.77C2215.98 526.912 2221.74 541.596 2232.43 552.321C2243.09 563.018 2257.29 568.906 2272.39 568.906H2353.36C2364.27 568.906 2374.85 565.77 2383.98 559.838L2413.13 540.863L2437.27 565.69C2445.48 573.806 2456.35 578.488 2467.9 578.886C2480.35 579.31 2492.59 574.459 2501.49 565.56L2581.97 485.085C2589.96 477.094 2594.36 466.47 2594.36 455.192L2594.35 436.836L2683.03 348.16L2683.68 347.517C2684.18 347.023 2684.69 346.53 2685.19 346.031L2685.25 345.964C2687.68 343.54 2691.82 345.256 2691.82 348.684V414.317C2691.82 531.164 2597.1 625.887 2480.25 625.887Z" fill="black"/>
<path d="M2353.56 403.522H2272.58C2257.01 403.522 2244.38 416.148 2244.38 431.724V512.699C2244.38 528.274 2257.01 540.901 2272.58 540.901H2353.56C2369.13 540.901 2381.76 528.275 2381.76 512.699V431.724C2381.76 416.149 2369.13 403.522 2353.56 403.522Z" fill="#EF3333"/>
<path d="M2566.35 455.366V431.187C2566.35 427.448 2567.84 423.859 2570.48 421.216L2663.53 328.173C2664.16 327.545 2664.81 326.922 2665.44 326.288C2741.56 250.166 2769.84 144.31 2750.28 46.0973C2749.16 40.4933 2744.79 36.1163 2739.18 34.9993C2640.97 15.4363 2535.12 43.7182 2458.99 119.841C2458.36 120.474 2457.74 121.117 2457.11 121.755L2364.06 214.798C2361.42 217.44 2357.83 218.926 2354.09 218.926H2329.91C2326.18 218.926 2322.58 220.412 2319.94 223.059L2239.46 303.534C2232.1 310.893 2233.25 321.791 2239.53 328.072C2241.44 329.981 2243.82 331.462 2246.58 332.285C2248.16 332.759 2249.86 333.018 2251.68 333.018H2438.16C2445.95 333.018 2452.26 339.329 2452.26 347.117V533.602C2452.26 535.417 2452.52 537.122 2452.99 538.702C2456.54 550.542 2472.15 555.413 2481.74 545.816L2562.22 465.341C2564.87 462.694 2566.35 459.105 2566.35 455.366ZM2563.7 221.579C2543.05 200.924 2543.05 167.442 2563.7 146.788C2584.36 126.133 2617.84 126.133 2638.49 146.788C2659.15 167.443 2659.15 200.925 2638.49 221.579C2617.84 242.234 2584.36 242.234 2563.7 221.579Z" fill="#EF3333"/>
</svg>
