<svg width="2758" height="666" viewBox="0 0 2758 666" fill="none" xmlns="http://www.w3.org/2000/svg">
<path fill-rule="evenodd" clip-rule="evenodd" d="M2623.07 442.056L2562.6 649.053C2555.95 671.8 2523.39 670.801 2518.16 647.69L2495.34 547.031C2491.71 531.03 2472.96 523.884 2459.6 533.411L2334.12 622.91C2316.38 635.568 2292.63 618.694 2298.74 597.77L2342.26 448.89C2346.86 433.142 2333.94 417.787 2317.64 419.627L2213.61 431.366C2190.07 434.023 2178.41 403.61 2197.7 389.849L2373.27 264.594C2381.24 258.911 2391.93 258.9 2399.91 264.568L2614.33 416.893C2622.31 422.561 2625.82 432.662 2623.07 442.056Z" fill="#EF3333"/>
<path fill-rule="evenodd" clip-rule="evenodd" d="M2510.93 131.053L2682.03 9.03001C2718.76 -17.1688 2767.91 17.7576 2755.25 61.0646L2696.3 262.755C2687.13 294.118 2649.78 307.093 2623.15 288.169L2511 208.502C2484.36 189.575 2484.33 150.029 2510.93 131.053Z" fill="#EF3333"/>
<path d="M208 323C221.6 323 233.067 327.8 242.4 337.4C252 346.733 256.8 358.067 256.8 371.4V455.4H53.2V506.6C53.2 510.867 54.6667 514.6 57.6 517.8C60.8 520.733 64.5333 522.2 68.8 522.2H256.8V555H68.8C55.4667 555 44 550.333 34.4 541C25.0667 531.4 20.4 519.933 20.4 506.6V371.4C20.4 358.067 25.0667 346.733 34.4 337.4C44 327.8 55.4667 323 68.8 323H208ZM53.2 422.6H223.6V371.4C223.6 367.133 222 363.533 218.8 360.6C215.867 357.4 212.267 355.8 208 355.8H68.8C64.5333 355.8 60.8 357.4 57.6 360.6C54.6667 363.533 53.2 367.133 53.2 371.4V422.6ZM466.553 323C479.886 323 491.22 327.8 500.553 337.4C510.153 346.733 514.953 358.067 514.953 371.4V555H482.153V371.4C482.153 367.133 480.553 363.533 477.353 360.6C474.42 357.4 470.82 355.8 466.553 355.8H327.353C323.086 355.8 319.353 357.4 316.153 360.6C312.953 363.533 311.353 367.133 311.353 371.4V555H278.553V323H466.553ZM779.869 323H818.269L689.869 555H651.869L523.869 323H562.269L671.069 523L779.869 323ZM1066.28 135C1155.08 135 1227.08 206.6 1227.08 295.4C1227.08 384.2 1155.08 456.2 1066.28 456.2H917.884V555H831.484V456.2V135H917.884H1066.28ZM1066.28 369.8C1107.08 369.8 1140.28 336.6 1140.28 295.4C1140.28 254.6 1107.08 221.4 1066.28 221.4H917.884V369.8H1066.28ZM1642.63 295.4C1642.63 397.4 1520.23 371 1520.23 371L1637.03 555H1535.43L1475.03 456.2H1333.43V555H1247.03V135H1481.83C1526.23 135 1566.23 153 1595.43 181.8C1624.63 211 1642.63 251 1642.63 295.4ZM1517.83 360.2C1540.63 347.8 1555.83 323.4 1555.83 295.4C1555.83 254.6 1522.63 221.4 1481.83 221.4H1333.43V369.8H1481.83C1495.03 369.8 1507.03 366.2 1517.83 360.2ZM1864.58 135C1980.58 135 2074.58 229 2074.58 345C2074.58 461 1980.58 555 1864.58 555C1748.58 555 1654.58 461 1654.58 345C1654.58 229 1748.58 135 1864.58 135ZM1864.58 468.6C1932.98 468.6 1988.18 413 1988.18 345C1988.18 276.6 1932.98 221.4 1864.58 221.4C1796.58 221.4 1740.98 276.6 1740.98 345C1740.98 413 1796.58 468.6 1864.58 468.6Z" fill="#EF3333"/>
</svg>
