<svg width="598" height="597" viewBox="0 0 598 597" fill="none" xmlns="http://www.w3.org/2000/svg">
<path d="M321.25 596.887H17.703C7.926 596.887 0 588.961 0 579.184V275.637C0 158.789 94.723 64.0664 211.571 64.0664H277.204C280.632 64.0664 282.348 68.2114 279.924 70.6344L279.856 70.7024C279.358 71.2004 278.869 71.6994 278.35 72.2284L278.026 72.5624L189.056 161.532H170.72C159.418 161.527 148.794 165.929 140.802 173.921L60.327 254.396C51.428 263.295 46.577 275.534 47.001 287.983C47.4 299.559 52.101 310.452 60.247 318.668C60.332 318.753 84.755 343.176 84.755 343.176L66.05 371.912C60.117 381.035 56.982 391.619 56.982 402.527V482.77C56.982 497.912 62.742 512.596 73.431 523.321C84.092 534.018 98.289 539.906 113.387 539.906H194.36C205.268 539.906 215.852 536.77 224.975 530.838L254.13 511.863L278.269 536.69C286.475 544.806 297.348 549.488 308.904 549.886C321.353 550.31 333.592 545.459 342.491 536.56L422.966 456.085C430.958 448.094 435.36 437.47 435.36 426.192L435.35 407.836L524.026 319.16L524.679 318.517C525.183 318.023 525.686 317.53 526.185 317.031L526.252 316.964C528.676 314.54 532.82 316.256 532.82 319.684V385.317C532.821 502.164 438.098 596.887 321.25 596.887Z" fill="white"/>
<path d="M194.557 374.521H113.582C98.007 374.521 85.38 387.148 85.38 402.724V483.698C85.38 499.273 98.006 511.901 113.582 511.901H194.557C210.132 511.901 222.759 499.274 222.759 483.698V402.724C222.759 387.149 210.133 374.521 194.557 374.521Z" fill="black"/>
<path d="M407.354 426.366V402.187C407.354 398.448 408.84 394.859 411.482 392.216L504.525 299.173C505.163 298.545 505.806 297.922 506.439 297.288C582.561 221.166 610.844 115.31 591.281 17.0973C590.164 11.4933 585.787 7.11627 580.183 5.99927C481.97 -13.5637 376.115 14.7182 299.992 90.8412C299.359 91.4742 298.736 92.1172 298.107 92.7552L205.064 185.798C202.422 188.44 198.832 189.926 195.093 189.926H170.914C167.175 189.926 163.585 191.412 160.938 194.059L80.4631 274.534C73.1041 281.893 74.2511 292.791 80.5331 299.072C82.4421 300.981 84.8201 302.462 87.5771 303.285C89.1571 303.759 90.8621 304.018 92.6771 304.018H279.162C286.949 304.018 293.261 310.329 293.261 318.117V504.602C293.261 506.417 293.52 508.122 293.994 509.702C297.539 521.542 313.148 526.413 322.745 516.816L403.22 436.341C405.869 433.694 407.354 430.105 407.354 426.366ZM404.702 192.579C384.047 171.924 384.047 138.442 404.702 117.788C425.357 97.1333 458.839 97.1333 479.493 117.788C500.147 138.443 500.148 171.925 479.493 192.579C458.839 213.234 425.357 213.234 404.702 192.579Z" fill="black"/>
</svg>
